HIERARCHY
ROOT Hips
{
	OFFSET 0.00000 0.00000 0.00000
	CHANNELS 6 Xposition Yposition Zposition Zrotation Yrotation Xrotation 
	JOINT LHipJoint
	{
		OFFSET 0 0 0
		CHANNELS 3 Zrotation Yrotation Xrotation
		JOINT LeftHip
		{
			OFFSET 1.67711 -1.75950 0.70433
			CHANNELS 3 Zrotation Yrotation Xrotation
			JOINT LeftKnee
			{
				OFFSET 2.44937 -6.72958 0.00000
				CHANNELS 3 Zrotation Yrotation Xrotation
				JOINT LeftAnkle
				{
					OFFSET 2.61292 -7.17894 0.00000
					CHANNELS 3 Zrotation Yrotation Xrotation
					JOINT LeftToe
					{
						OFFSET 0.17811 -0.48914 1.82515
						CHANNELS 3 Zrotation Yrotation Xrotation
						End Site
						{
							OFFSET -0.00112 -0.00292 0.95564
						}
					}
				}
			}
		}
	}
	JOINT RHipJoint
	{
		OFFSET 0 0 0
		CHANNELS 3 Zrotation Yrotation Xrotation
		JOINT RightHip
		{
			OFFSET -1.61866 -1.75949 0.70433
			CHANNELS 3 Zrotation Yrotation Xrotation
			JOINT RightKnee
			{
				OFFSET -2.36243 -6.49072 0.00000
				CHANNELS 3 Zrotation Yrotation Xrotation
				JOINT RightAnkle
				{
					OFFSET -2.64336 -7.26259 0.00000
					CHANNELS 3 Zrotation Yrotation Xrotation
					JOINT RightToe
					{
						OFFSET -0.18169 -0.49935 1.90192
						CHANNELS 3 Zrotation Yrotation Xrotation
						End Site
						{
							OFFSET 0.00039 0.00229 0.99264
						}
					}
				}
			}
		}
	}
	JOINT lowerback
	{
		OFFSET 0 0 0
		CHANNELS 3 Zrotation Yrotation Xrotation
		JOINT Chest
		{
			OFFSET -0.01926 2.19655 -0.12599
			CHANNELS 3 Zrotation Yrotation Xrotation
			JOINT Chest2
			{
				OFFSET 0.01663 2.20532 -0.00079
				CHANNELS 3 Zrotation Yrotation Xrotation
				JOINT lowerneck
				{
					OFFSET 0 0 0
					CHANNELS 3 Zrotation Yrotation Xrotation
					JOINT Neck
					{
						OFFSET 0.10604 1.75174 0.14226
						CHANNELS 3 Zrotation Yrotation Xrotation
						JOINT Head
						{
							OFFSET -0.09898 1.68516 -0.48414
							CHANNELS 3 Zrotation Yrotation Xrotation
							End Site
							{
								OFFSET -0.02896 1.78316 -0.18415
							}
						}
					}
				}
				JOINT LeftCollar
				{
					OFFSET 0 0 0
					CHANNELS 3 Zrotation Yrotation Xrotation
					JOINT LeftShoulder
					{
						OFFSET 3.30655 1.16959 -0.30867
CHANNELS 3 Zrotation Xrotation Yrotation
						JOINT LeftElbow
						{
OFFSET 0 -5.352890 -0.000000
CHANNELS 3 Zrotation Xrotation Yrotation
							JOINT LeftWrist
							{
OFFSET 0 -3.277270 -0.000000
CHANNELS 3 Zrotation Xrotation Yrotation
								JOINT lhand
								{
									OFFSET 0 0 0
CHANNELS 3 Zrotation Xrotation Yrotation
									JOINT LFingers
									{
OFFSET 0 -0.544430 0.000090
CHANNELS 3 Zrotation Xrotation Yrotation
										End Site
										{
OFFSET 0 -0.438910 -0.000000
										}
									}
								}
								JOINT LThumb
								{
OFFSET 0 0.000000 0.000000
CHANNELS 3 Zrotation Xrotation Yrotation
									End Site
									{
OFFSET 0 -0.445640 0.445700
									}
								}
							}
						}
					}
				}
				JOINT RightCollar
				{
					OFFSET 0 0 0
					CHANNELS 3 Zrotation Yrotation Xrotation
					JOINT RightShoulder
					{
						OFFSET -3.27172 0.97864 -0.36131
CHANNELS 3 Zrotation Xrotation Yrotation
						JOINT RightElbow
						{
OFFSET 0 -5.520760 -0.005900
CHANNELS 3 Zrotation Xrotation Yrotation
							JOINT RightWrist
							{
OFFSET 0 -3.323640 -0.000000
CHANNELS 3 Zrotation Xrotation Yrotation
								JOINT rhand
								{
									OFFSET 0 0 0
CHANNELS 3 Zrotation Xrotation Yrotation
									JOINT RFingers
									{
OFFSET 0 -0.732230 -0.000000
CHANNELS 3 Zrotation Xrotation Yrotation
										End Site
										{
OFFSET 0 -0.590350 -0.000000
										}
									}
								}
								JOINT RThumb
								{
OFFSET 0 0.000000 0.000000
CHANNELS 3 Zrotation Xrotation Yrotation
									End Site
									{
OFFSET 0 -0.599360 0.599360
									}
								}
							}
						}
					}
				}
			}
		}
	}
}
MOTION
Frames: 11
Frame Time: 0.008333333333333333
5.926300 21.130700 -4.946600 1.748300 -2.566100 12.020600 0.000000 0.000000 0.000000 -16.626900 -23.606000 -39.489900 8.711200 16.618200 55.085800 1.346700 -11.972900 -21.159700 0.142800 -2.435500 -6.710900 0.000000 0.000000 0.000000 15.841300 9.451300 -40.356700 -19.112400 -19.981100 87.403900 -0.264300 -3.263800 9.136200 -0.863000 5.923900 -16.563700 -3.944700 1.773600 13.159900 -2.683300 1.631000 2.098200 -0.879400 0.848000 -5.197800 11.789500 9.983100 -19.581400 -14.226500 13.794500 18.697700 -4.817100 5.623000 11.184500 0.000000 -0.000000 0.000000 11.448900 0.425700 -33.434600 82.104300 -59.763100 53.167500 24.232500 -4.294600 -20.577900 0.000000 0.000000 0.000000 -7.125000 0.000000 0.000000 -4.432400 52.304000 0.798200 0.000000 -0.000000 0.000000 -4.983000 9.460800 36.147800 -35.696800 -45.303300 -15.306600 -17.407400 -16.383900 -22.278800 0.000000 0.000000 0.000000 7.125000 0.000000 -0.000000 7.197600 6.895300 6.332900
5.999806 21.680631 -4.105207 3.885547 -1.528706 9.592093 0.000000 0.000000 0.000000 -22.861162 -22.967349 -26.178209 5.778465 14.208527 44.082846 1.296467 -10.040767 -20.512250 0.106883 -2.069449 -5.698963 0.000000 0.000000 0.000000 11.571534 7.775966 -51.311225 -22.766465 -19.815189 98.112496 0.006637 -1.483228 -0.997404 -0.986395 6.115513 -17.187518 -4.730761 0.958398 13.128575 -2.469769 0.456736 1.991761 -0.007709 0.291462 -5.281014 11.041370 10.581086 -20.584224 -12.928249 14.603932 19.894627 -4.040666 5.997651 11.752038 0.000000 0.000000 0.000000 11.356747 2.568761 -35.863868 86.755957 -59.960155 57.190988 22.824813 -3.877566 -20.165011 0.000000 0.000000 0.000000 -7.125000 0.000000 0.000000 -5.733142 51.615580 0.935875 0.000000 0.000000 0.000000 -4.501863 10.166104 32.187474 -31.623267 -42.244069 -12.487069 -19.011816 -15.630194 -22.738634 0.000000 0.000000 0.000000 7.125000 0.000000 0.000000 6.224275 6.191435 5.550283
6.010825 21.977862 -3.293685 5.059169 -1.987427 7.711457 0.000000 0.000000 0.000000 -26.649818 -19.238677 -16.656786 3.859797 11.970708 35.629518 1.191875 -10.057700 -19.706884 0.026711 -1.055125 -2.900514 0.000000 0.000000 0.000000 7.483117 9.918606 -59.461002 -22.184131 -19.884573 96.397763 -0.209268 -0.877730 -9.003685 -1.322593 7.282838 -20.556250 -5.620309 0.853105 12.954719 -1.812266 0.240670 1.927830 1.222912 0.207803 -5.250128 11.521174 10.657684 -21.495924 -12.844834 14.556534 20.681124 -4.076966 5.962726 12.252564 0.000000 0.000000 0.000000 11.031758 3.983003 -38.008493 83.857747 -59.856972 54.683246 16.992305 -0.059173 -26.276264 0.000000 0.000000 0.000000 -7.125000 0.000000 0.000000 -14.206262 56.716119 4.137132 0.000000 0.000000 0.000000 -4.535920 10.155896 28.447339 -27.212014 -38.378060 -9.631432 -16.357735 -13.858095 -19.385815 0.000000 0.000000 0.000000 7.125000 0.000000 0.000000 7.712332 9.984774 6.317345
5.986177 22.097764 -2.436513 5.389535 -0.567292 6.090084 0.000000 0.000000 0.000000 -28.511530 -15.888697 -8.885797 2.715740 10.219686 29.691439 1.110467 -11.498313 -19.303491 0.065006 -1.608421 -4.425591 0.000000 0.000000 0.000000 4.468202 10.619613 -62.041250 -17.603502 -19.859989 82.977078 -0.370969 -2.389304 -12.631179 -0.837513 5.830675 -16.296031 -5.756743 0.249742 12.298654 -0.499369 -0.449452 2.002728 2.796638 -0.132749 -4.750495 11.774203 10.252182 -20.099771 -12.657666 13.892281 19.958592 -4.214731 5.792019 11.615412 0.000000 0.000000 0.000000 10.006205 5.455983 -40.498093 79.660636 -59.591609 51.058130 10.913067 6.153472 -28.497855 0.000000 0.000000 0.000000 -7.125000 0.000000 0.000000 -21.833960 57.554616 6.932561 0.000000 0.000000 0.000000 -5.488691 10.954566 25.887104 -23.839550 -34.993637 -7.614534 -16.132946 -15.920780 -19.218246 0.000000 0.000000 0.000000 7.125000 0.000000 0.000000 7.851166 10.181878 6.401571
5.919566 22.103523 -1.574663 5.779806 0.801400 4.896718 0.000000 0.000000 0.000000 -29.412598 -12.274521 -2.742856 1.964992 8.792271 25.148024 0.891642 -13.943640 -18.214477 0.001964 0.238390 0.655080 0.000000 0.000000 0.000000 1.728931 11.527755 -58.858103 -10.968637 -17.913205 62.671702 -0.470154 -1.946762 -13.807206 -0.983197 6.308570 -17.683472 -5.883885 0.189044 11.935825 0.570777 -0.451396 2.473145 3.989951 -0.157248 -4.042599 11.870621 9.879313 -20.671504 -11.927823 13.073789 20.048684 -4.102537 5.493318 11.583215 0.000000 0.000000 0.000000 8.881218 4.938629 -43.713752 75.156325 -59.150030 47.181799 3.147423 12.372624 -29.782229 0.000000 0.000000 0.000000 -7.125000 0.000000 0.000000 -30.504537 57.067594 9.625963 0.000000 0.000000 0.000000 -5.585927 10.521319 22.677632 -21.026687 -31.856208 -6.065519 -16.220256 -18.244040 -18.669276 0.000000 0.000000 0.000000 7.125000 0.000000 0.000000 7.773092 10.731995 6.248881
5.769700 22.012846 -0.622692 6.616241 2.384529 4.443043 0.000000 0.000000 0.000000 -30.076644 -8.898533 2.742079 1.430432 7.562121 21.392035 0.898013 -14.790281 -18.539734 0.186742 -2.771340 -7.643541 0.000000 0.000000 0.000000 -0.320187 11.872470 -53.173185 -6.248100 -14.663966 45.968405 -0.672526 -1.809427 -16.208104 -0.463915 4.304999 -11.947850 -6.312442 -0.012529 10.498945 1.013621 -0.643588 2.809440 4.702988 -0.295657 -2.863504 11.622666 9.381747 -21.537531 -9.659215 11.860653 21.488109 -3.441924 5.146934 11.929840 0.000000 0.000000 0.000000 8.015763 4.845239 -45.897158 72.630239 -58.828731 45.016540 -6.365753 11.810614 -33.508451 0.000000 0.000000 0.000000 -7.125000 0.000000 0.000000 -42.920868 58.027860 15.525988 0.000000 0.000000 0.000000 -4.667504 10.077092 19.662941 -18.983213 -29.397799 -5.022605 -15.193730 -16.219007 -19.257536 0.000000 0.000000 0.000000 7.125000 0.000000 0.000000 8.461252 10.248642 6.898471
5.552150 21.956187 0.451286 7.384762 3.174343 4.521548 0.000000 0.000000 0.000000 -29.988793 -5.795127 7.335584 1.053725 6.526992 18.321480 0.480958 -15.133906 -15.291499 0.094026 -1.977012 -5.442147 0.000000 0.000000 0.000000 -0.386968 11.977006 -48.154891 -4.671267 -13.003755 39.382465 -0.274185 -3.299302 -11.668135 -1.058100 6.540149 -18.360080 -6.692437 -0.178411 9.003181 1.284659 -0.796119 2.580922 5.198909 -0.387160 -2.245157 12.211833 8.688640 -21.004411 -8.721725 10.565133 22.626701 -3.459920 4.744989 12.079611 0.000000 0.000000 0.000000 7.255471 5.994387 -46.995961 72.213060 -58.770063 44.659693 -7.413421 9.208789 -34.495150 0.000000 0.000000 0.000000 -7.125000 0.000000 0.000000 -44.918133 58.526901 17.014942 0.000000 0.000000 0.000000 -3.718199 10.030462 17.325245 -17.355815 -27.324450 -4.249424 -13.078772 -10.608443 -21.028298 0.000000 0.000000 0.000000 7.125000 0.000000 0.000000 9.874887 8.697682 8.395466
5.259445 21.962015 1.649673 8.482641 3.859551 6.678694 0.000000 0.000000 0.000000 -29.540734 -5.006067 9.406407 0.942060 6.181793 17.312873 0.036714 -14.311093 -10.459236 0.535436 -4.686574 -13.017106 0.000000 0.000000 0.000000 0.672108 11.407404 -45.670813 -4.760042 -13.108377 39.775567 -0.189248 -2.602949 -9.595853 -1.220236 7.006701 -19.735166 -6.689299 -0.457142 6.416955 1.114132 -1.020614 1.518596 5.001660 -0.483466 -1.886511 11.676101 8.111342 -22.017944 -7.295944 9.506436 24.366663 -3.025280 4.379747 12.714378 0.000000 0.000000 0.000000 7.948930 7.516266 -49.098755 71.128170 -58.610325 43.732815 -2.880069 8.663716 -33.371192 0.000000 0.000000 0.000000 -7.125000 0.000000 0.000000 -39.550127 58.699577 14.690381 0.000000 0.000000 0.000000 -2.594108 10.522847 15.775232 -17.028411 -26.895275 -4.100200 -10.649127 -3.499600 -20.707259 0.000000 0.000000 0.000000 7.125000 0.000000 0.000000 11.409621 9.270347 9.620476
4.962241 22.126526 2.839607 7.602939 1.820797 7.043679 0.000000 0.000000 0.000000 -27.894419 -3.828909 9.909925 1.338959 7.326282 20.685847 -0.242741 -10.138223 -1.837802 0.370206 -3.898919 -10.793787 0.000000 0.000000 0.000000 3.204290 13.356290 -44.169465 -5.485320 -13.910270 42.879265 -0.193342 -2.004417 -9.293666 -1.219746 7.004069 -19.728033 -4.712922 -0.299230 6.461857 1.650562 -0.678952 0.918606 4.421986 -0.287570 -2.599581 11.688056 8.290079 -20.984218 -8.324812 10.162799 23.835557 -3.317518 4.569830 12.440700 0.000000 0.000000 0.000000 7.590197 9.557453 -49.816903 64.778887 -57.453991 38.344624 6.426078 9.367663 -28.551906 0.000000 0.000000 0.000000 -7.125000 0.000000 0.000000 -26.351742 56.669198 7.918589 0.000000 0.000000 0.000000 -3.326561 10.106803 16.979708 -16.519248 -26.219574 -3.872554 -11.074384 -1.612751 -22.031561 0.000000 0.000000 0.000000 7.125000 0.000000 0.000000 11.164273 7.915087 9.711543
4.631841 22.335581 4.031616 7.137494 2.220798 7.448123 0.000000 0.000000 0.000000 -26.287459 -4.255050 3.831492 3.524817 11.489156 33.960935 0.049728 -4.728096 8.260181 0.028510 -1.087717 -2.990109 0.000000 0.000000 0.000000 6.203608 12.132673 -40.328587 -5.759924 -14.191570 44.010417 -0.458114 -0.198506 -12.858991 -0.785767 5.658436 -15.796641 -3.612756 -0.814001 5.671867 2.580635 -1.239606 1.120003 4.792952 -0.596129 -1.889978 11.551382 8.632858 -20.363182 -9.563657 11.153952 23.833855 -3.597713 4.862601 12.516712 0.000000 0.000000 0.000000 6.230407 10.576971 -49.404708 56.231491 -55.217524 31.225457 11.734396 3.555676 -26.077501 0.000000 0.000000 0.000000 -7.125000 0.000000 0.000000 -19.442393 55.462935 5.134711 0.000000 0.000000 0.000000 -5.812249 8.509189 19.916979 -17.722173 -27.798363 -4.419793 -9.850982 -2.546967 -21.140568 0.000000 0.000000 0.000000 7.125000 0.000000 0.000000 11.920675 8.917668 10.154678
4.329378 22.523792 5.059466 4.612432 2.349463 7.547321 0.000000 0.000000 0.000000 -22.280894 -4.346884 -8.288265 8.442412 16.432256 54.136424 0.374960 -1.233857 12.082219 0.023206 -0.956541 -2.629453 0.000000 0.000000 0.000000 11.511485 11.254820 -35.562881 -5.460127 -13.883966 42.774510 -0.731971 0.936939 -15.873277 -0.627042 5.064721 -14.093712 -0.848548 -0.488556 6.017104 3.363733 -0.620060 1.147749 4.001437 -0.296035 -2.144333 11.248605 8.267259 -20.023742 -8.399921 10.508183 24.944002 -3.249822 4.699483 12.709654 0.000000 0.000000 0.000000 5.759672 10.338793 -48.597268 48.720470 -52.465606 25.156080 11.111852 -1.036693 -26.751997 0.000000 0.000000 0.000000 -7.125000 0.000000 0.000000 -20.475266 55.973486 5.681381 0.000000 0.000000 0.000000 -7.689762 8.321054 22.362743 -20.959049 -31.780086 -6.028552 -11.526387 -6.019069 -20.865648 0.000000 0.000000 0.000000 7.125000 0.000000 0.000000 10.855340 9.025814 9.189042
